<svg fill="#ff5f5f" xmlns="http://www.w3.org/2000/svg"  viewBox="0 0 32 32" width="100px" height="100px"><path d="M 22.552734 2.1054688 C 21.433477 2.6650971 20.342319 3.4805103 19.490234 4.4746094 C 19.051981 4.9859049 18.675551 5.5522755 18.408203 6.1621094 C 18.163406 6.069877 17.923524 5.9977804 17.685547 5.9375 L 17.701172 5.921875 C 16.607773 4.8524284 14.939178 4 13 4 C 11.180111 4 9.3587477 4.8090098 7.9804688 5.9277344 C 7.2913293 6.4870967 6.7105626 7.130427 6.3300781 7.8632812 C 5.9495936 8.5961357 5.7696657 9.4730597 6.0507812 10.316406 C 6.3104548 11.095716 6.7855098 11.712064 7.3945312 12.046875 C 6.8740605 12.976891 6.2262425 14.344716 6.0097656 15.859375 C 5.4918523 19.484769 5.7375357 22.62667 6.5507812 25.066406 C 7.3640269 27.506143 8.7724974 29.312187 10.683594 29.949219 C 11.828878 30.33098 13.047611 30.026509 14.28125 29.453125 C 15.514889 28.879743 16.796189 27.984886 18.041016 26.871094 C 20.530668 24.64351 22.870162 21.553577 23.949219 18.316406 C 24.08534 17.908042 24.078347 17.894077 24.167969 17.591797 C 24.301977 17.622916 24.437151 17.653953 24.583984 17.662109 C 25.339385 17.704069 26.08918 17.324882 26.707031 16.707031 C 27.343798 16.070265 27.574815 15.201085 27.583984 14.351562 C 27.593184 13.50204 27.393092 12.62465 27.054688 11.767578 C 26.377878 10.053435 25.162629 8.3908259 23.478516 7.5703125 L 23.476562 7.5703125 C 22.411384 7.0520956 21.296845 6.881892 20.261719 6.9238281 C 20.433185 6.5449392 20.685301 6.1539331 21.009766 5.7753906 C 21.657681 5.0194897 22.566523 4.3349029 23.447266 3.8945312 L 22.552734 2.1054688 z M 13 6 C 13.495579 6 13.965929 6.1087247 14.414062 6.2558594 C 14.391355 6.2688776 14.366171 6.2774855 14.34375 6.2910156 C 13.134411 7.0208068 12.487683 8.3507015 12.304688 9.7949219 C 11.050196 9.843725 9.9708843 10.211806 9.2265625 10.328125 C 8.768637 10.399687 8.4879937 10.369577 8.3652344 10.314453 C 8.2424751 10.259329 8.117107 10.187445 7.9492188 9.6835938 C 7.8768342 9.4664404 7.8959844 9.1886457 8.1054688 8.7851562 C 8.3149529 8.381667 8.7159988 7.9059814 9.2402344 7.4804688 C 10.288705 6.6294434 11.819889 6 13 6 z M 16.480469 7.7421875 C 16.944133 7.7620965 17.514857 7.9108189 18.224609 8.2597656 C 20.08316 9.1746225 20.485794 9.8712609 20.523438 10.353516 C 20.561077 10.83577 20.151894 11.622188 19.369141 12.560547 C 18.277492 13.868021 17.4433 14.67081 16.84375 14.992188 C 16.243959 15.313693 15.923127 15.32366 15.167969 14.976562 C 14.473334 14.657485 14.301015 14.375786 14.167969 13.628906 C 14.034923 12.882027 14.113469 11.691494 14.273438 10.150391 C 14.383752 9.0858084 14.809034 8.3466245 15.376953 8.0039062 C 15.660913 7.8325473 16.016804 7.7222785 16.480469 7.7421875 z M 22.271484 9.2402344 C 22.381566 9.2831615 22.493847 9.3167387 22.601562 9.3691406 L 22.601562 9.3671875 C 23.614449 9.8606741 24.669169 11.174346 25.193359 12.501953 C 25.455455 13.165757 25.58944 13.824632 25.583984 14.330078 C 25.578484 14.835524 25.446702 15.139235 25.292969 15.292969 C 24.91082 15.675118 24.7871 15.671115 24.695312 15.666016 C 24.603523 15.660916 24.35571 15.568126 23.972656 15.271484 C 23.37742 14.810533 22.559413 13.962647 21.404297 13.208984 C 22.069908 12.329532 22.6085 11.36206 22.517578 10.197266 C 22.491777 9.8667419 22.405372 9.5485596 22.271484 9.2402344 z M 12.125 11.822266 C 12.081445 12.589953 12.080478 13.311953 12.199219 13.978516 C 12.409173 15.157136 13.132666 16.242046 14.332031 16.792969 C 15.471873 17.316875 16.727104 17.323147 17.789062 16.753906 C 18.591398 16.32383 19.308218 15.659185 20.103516 14.771484 C 20.974682 15.314437 21.682681 15.96251 22.392578 16.552734 C 22.309029 16.849636 22.265246 17.040201 22.050781 17.683594 C 21.129838 20.446423 18.969332 23.35649 16.708984 25.378906 C 15.578811 26.390114 14.422611 27.182757 13.4375 27.640625 C 12.452389 28.098493 11.671122 28.16902 11.316406 28.050781 C 10.227502 27.687813 9.1359731 26.493857 8.4492188 24.433594 C 7.7624642 22.37333 7.5081477 19.515231 7.9902344 16.140625 C 8.2131593 14.580849 9.2302111 12.850116 9.5742188 12.296875 C 10.464558 12.154271 11.323919 11.908617 12.125 11.822266 z"/></svg>