<?xml version="1.0" standalone="no"?>
<!DOCTYPE svg PUBLIC "-//W3C//DTD SVG 20010904//EN"
 "http://www.w3.org/TR/2001/REC-SVG-20010904/DTD/svg10.dtd">
<svg version="1.0" xmlns="http://www.w3.org/2000/svg"
 width="1000.000000pt" height="1000.000000pt" viewBox="0 0 1000.000000 1000.000000"
 preserveAspectRatio="xMidYMid meet">

<g transform="translate(0.000000,1000.000000) scale(0.100000,-0.100000)"
fill="#ff5f5f" stroke="none">
<path d="M3960 8945 c-142 -29 -183 -33 -290 -32 -114 2 -128 0 -160 -20 -19
-13 -51 -23 -71 -23 -19 0 -44 -7 -55 -15 -10 -8 -37 -14 -59 -15 -38 0 -193
-42 -225 -60 -8 -5 -33 -19 -55 -30 -50 -27 -125 -105 -125 -130 0 -25 -21
-70 -32 -70 -5 0 -33 -23 -63 -51 -29 -28 -61 -52 -69 -53 -41 -6 -101 -76
-66 -76 20 0 9 -21 -16 -30 -49 -19 -84 -50 -84 -75 0 -31 25 -55 56 -55 33 0
21 -18 -19 -28 -39 -10 -61 -50 -52 -93 4 -17 13 -33 21 -36 24 -9 15 -22 -18
-25 -21 -2 -33 -8 -33 -18 0 -11 11 -15 43 -14 31 1 42 -3 38 -12 -3 -8 16
-24 52 -41 l57 -28 -77 -3 c-60 -2 -78 -6 -78 -17 0 -8 9 -15 20 -15 26 0 25
-4 -6 -46 -25 -32 -25 -35 -11 -58 14 -21 14 -26 1 -45 -8 -11 -30 -28 -47
-37 -51 -27 -64 -60 -24 -67 22 -4 22 -4 -3 -14 -19 -9 -30 -8 -49 4 -17 11
-26 12 -35 3 -8 -8 -5 -21 12 -50 21 -37 22 -48 22 -284 0 -162 4 -261 12
-291 11 -39 10 -53 -4 -93 -16 -45 -15 -97 3 -107 4 -3 24 27 45 66 36 68 69
101 193 196 l29 23 -14 65 c-15 71 -11 95 16 95 10 0 28 12 39 26 17 21 25 24
55 19 31 -6 41 -3 77 29 47 40 60 43 80 20 12 -14 9 -21 -24 -48 -20 -17 -37
-39 -37 -49 0 -10 -7 -20 -15 -23 -17 -7 -10 -24 9 -24 8 0 16 9 19 21 8 30
42 21 42 -11 0 -20 -10 -30 -45 -47 -25 -12 -64 -28 -87 -35 -24 -7 -43 -16
-43 -20 0 -4 -4 -8 -9 -8 -6 0 -22 -11 -37 -25 -31 -29 -20 -32 28 -8 18 9 45
23 60 30 15 7 70 29 122 48 78 28 117 36 205 41 131 8 159 -3 198 -80 34 -68
52 -282 35 -427 -18 -149 -70 -232 -183 -289 -54 -28 -43 -37 15 -12 93 42
184 173 208 301 6 31 11 128 12 216 0 88 5 166 9 173 17 26 30 12 24 -28 -6
-45 0 -49 31 -20 26 25 37 25 71 1 l28 -20 -4 -108 c-4 -85 0 -129 17 -208 13
-55 26 -136 29 -180 5 -57 17 -101 39 -152 18 -39 32 -80 32 -91 0 -11 11 -27
24 -36 26 -16 116 -128 116 -143 0 -4 -23 -23 -50 -41 -63 -43 -71 -67 -34
-97 36 -29 27 -55 -19 -55 -55 0 -151 -22 -167 -38 -13 -13 -9 -14 38 -9 29 4
64 2 79 -4 15 -5 30 -6 37 -1 6 5 27 12 48 16 33 6 38 4 57 -27 12 -19 21 -44
21 -55 0 -19 -47 -62 -68 -62 -5 0 -21 -9 -36 -21 -22 -17 -26 -28 -26 -70 l0
-49 54 0 c34 0 58 5 65 14 16 19 43 10 76 -24 19 -20 28 -43 35 -91 5 -36 16
-84 25 -108 8 -24 15 -59 15 -77 0 -44 -24 -45 -63 -4 -16 17 -34 30 -42 30
-14 0 -25 -52 -25 -120 0 -26 -5 -51 -11 -57 -6 -6 -9 -21 -7 -34 5 -33 82
-57 184 -58 91 -1 167 -23 180 -51 5 -11 38 -39 74 -62 79 -53 96 -81 150
-253 23 -71 60 -188 83 -260 39 -123 42 -137 42 -251 0 -156 -10 -177 -109
-227 -39 -20 -89 -40 -111 -45 -27 -5 -44 -16 -54 -34 -14 -24 -13 -30 12 -78
42 -81 34 -111 -38 -141 l-30 -13 35 -4 c30 -3 272 23 308 34 6 2 12 14 12 27
0 28 29 57 57 57 31 0 83 21 138 55 66 41 83 47 106 35 14 -8 19 -21 19 -49 0
-42 12 -57 50 -63 34 -6 -193 -78 -245 -78 -21 0 -54 -5 -72 -12 -30 -11 -34
-16 -31 -42 2 -20 12 -35 29 -45 24 -13 31 -13 78 8 29 12 88 26 131 31 44 5
88 13 98 19 10 5 60 21 112 36 51 14 138 47 192 71 80 37 101 43 118 34 24
-13 25 -18 3 -43 -18 -19 -17 -20 9 -13 30 7 41 -4 32 -28 -4 -10 -13 -14 -23
-11 -25 8 -121 -84 -121 -116 0 -19 -8 -29 -32 -40 -29 -12 -34 -20 -40 -64
-3 -27 -13 -69 -22 -93 -13 -38 -14 -44 -1 -49 9 -3 25 1 38 9 12 8 54 25 94
36 52 16 78 30 97 53 14 17 26 35 26 40 0 6 14 22 30 36 17 13 30 30 30 37 0
17 80 96 96 96 7 0 17 -7 22 -16 15 -27 -36 -212 -84 -306 -29 -56 -12 -65 33
-17 56 58 85 115 117 225 38 134 61 184 86 184 18 0 20 -6 20 -67 0 -38 -12
-126 -26 -198 -28 -140 -35 -274 -20 -391 l9 -71 -31 -22 c-35 -25 -57 -83
-67 -180 -4 -35 -12 -78 -17 -95 -6 -17 -14 -74 -19 -126 -17 -168 -22 -149
48 -189 90 -51 103 -65 103 -106 0 -36 3 -38 52 -49 31 -7 50 -49 37 -84 -7
-19 -12 -21 -28 -12 -15 7 -23 6 -35 -6 -22 -21 -21 -23 19 -60 22 -20 35 -41
35 -56 0 -24 2 -25 98 -31 53 -4 861 -7 1794 -7 l1697 0 -6 83 c-5 66 -11 90
-33 122 -15 22 -30 50 -34 63 -4 12 -12 22 -17 22 -5 0 -9 7 -9 15 0 8 -4 15
-10 15 -5 0 -10 9 -10 19 0 11 -5 21 -11 23 -5 2 -13 23 -16 46 -4 30 -17 55
-44 86 -22 24 -39 49 -39 54 0 6 -3 12 -7 14 -19 8 -43 83 -43 131 0 51 -17
107 -32 107 -5 0 -8 7 -8 15 0 8 -4 15 -10 15 -5 0 -10 9 -10 20 0 11 -4 20
-10 20 -5 0 -10 6 -10 13 0 7 -9 18 -20 25 -11 7 -20 17 -20 23 0 6 -14 27
-30 46 -16 18 -30 44 -30 56 0 12 -9 30 -20 40 -11 9 -23 31 -26 47 -4 16 -13
35 -20 41 -8 6 -14 16 -14 21 0 5 -13 26 -29 46 -21 26 -32 53 -37 91 -6 49
-13 61 -61 108 -29 29 -53 56 -53 60 0 5 -18 21 -40 37 -22 17 -40 38 -40 49
0 10 -4 16 -8 13 -5 -3 -19 13 -31 34 -12 22 -29 47 -38 55 -9 9 -18 37 -21
63 -5 45 -37 92 -63 92 -5 0 -36 25 -69 55 -33 30 -69 55 -80 55 -11 0 -20 4
-20 8 0 5 -18 18 -40 31 -22 12 -61 46 -86 76 -48 56 -66 65 -148 85 -71 16
-103 35 -176 105 -74 70 -85 75 -232 109 -58 14 -168 49 -245 79 -232 91 -468
161 -857 256 -101 24 -163 47 -285 105 -86 41 -179 84 -207 95 -54 21 -132 70
-155 97 -7 9 -36 26 -64 39 -27 12 -64 37 -80 56 -67 74 -119 146 -141 194
-61 134 -167 611 -150 678 4 19 21 37 53 55 72 42 101 76 109 130 7 51 31 82
63 82 11 0 22 4 25 9 3 4 34 14 68 21 35 6 75 18 91 26 17 9 40 12 61 9 62
-12 107 9 184 87 63 64 73 79 83 127 12 59 7 248 -12 406 -6 50 -11 122 -13
160 -1 39 -8 80 -14 92 -7 12 -12 37 -12 55 -1 78 -18 246 -29 283 -16 49 -53
129 -63 133 -5 2 -8 16 -9 30 0 20 -15 40 -60 77 -91 76 -97 83 -120 154 -63
194 -280 521 -345 521 -26 0 -39 11 -111 96 -68 79 -93 116 -93 139 0 27 -47
89 -80 107 -14 7 -27 16 -30 19 -12 13 -100 69 -109 69 -5 0 -14 6 -18 13 -9
14 -66 48 -133 79 -25 11 -57 27 -72 34 -14 8 -35 14 -45 14 -10 0 -28 7 -40
15 -12 9 -48 20 -80 26 -32 6 -67 16 -78 22 -41 23 -155 35 -330 36 -166 0
-193 -3 -345 -34z m-1120 -589 c0 -19 -19 -32 -58 -39 -28 -6 -33 -4 -30 10 6
32 88 59 88 29z m1623 -760 c37 -15 87 -69 87 -94 0 -10 -11 -4 -32 20 -26 27
-111 74 -125 69 -2 -1 -15 0 -30 0 -25 2 -24 2 7 9 53 11 58 11 93 -4z m-1696
-21 c9 -24 -2 -29 -72 -33 -82 -5 -121 3 -105 23 14 17 38 22 113 24 44 1 59
-3 64 -14z m611 -167 c7 -7 12 -22 12 -35 0 -17 -7 -24 -27 -29 -16 -3 -39 -9
-53 -13 -24 -7 -110 25 -110 41 0 4 17 16 38 27 41 22 122 27 140 9z m32 -164
c22 -9 49 -28 59 -43 17 -23 17 -29 5 -53 -8 -15 -16 -37 -17 -50 -4 -22 -7
-24 -25 -16 -4 2 -15 20 -24 40 -21 46 -82 78 -147 78 l-46 1 24 19 c13 11 36
20 52 20 15 0 31 5 34 10 9 14 39 12 85 -6z m510 -1421 c0 -18 -5 -24 -17 -21
-19 4 -28 30 -19 55 9 23 36 -3 36 -34z"/>
<path d="M3146 7093 c-6 -7 -24 -31 -41 -54 -16 -23 -42 -53 -57 -67 -33 -31
-36 -47 -7 -31 17 9 23 8 30 -2 14 -22 12 -26 -56 -100 -61 -67 -75 -94 -47
-94 7 0 20 16 30 35 20 41 53 60 104 60 33 0 37 -3 49 -37 6 -21 14 -42 18
-48 3 -5 6 -21 6 -34 0 -81 145 -30 195 70 25 48 27 140 4 159 -11 10 -14 24
-9 49 4 25 0 47 -12 70 l-18 34 -89 1 c-59 1 -93 -3 -100 -11z"/>
<path d="M2664 6997 c-22 -11 -84 -68 -84 -76 0 -15 68 -8 97 9 l33 19 6 -27
c3 -15 8 -34 10 -42 2 -9 -5 -42 -16 -74 -18 -49 -19 -63 -9 -93 6 -20 9 -55
5 -83 -7 -52 0 -63 46 -74 21 -5 30 -15 38 -45 5 -21 17 -44 25 -51 18 -15 18
-14 4 70 -5 36 -11 94 -12 130 -2 36 -13 103 -24 150 -12 47 -27 110 -33 140
-11 50 -14 55 -40 56 -15 1 -36 -3 -46 -9z"/>
<path d="M2552 6887 c-23 -27 -29 -91 -16 -155 22 -105 117 -284 187 -351 50
-49 74 -55 30 -8 -68 73 -103 134 -68 121 23 -9 18 17 -10 51 l-25 30 6 -32
c4 -18 3 -33 0 -33 -11 0 -61 115 -85 194 -25 81 -26 117 -6 156 15 30 6 50
-13 27z"/>
<path d="M2444 6646 c-6 -25 16 -80 57 -144 12 -18 30 -67 41 -110 10 -42 28
-96 39 -119 10 -24 19 -47 19 -53 0 -6 14 -40 30 -77 36 -79 37 -85 8 -81 -19
3 -24 -2 -26 -30 -6 -59 47 -203 110 -298 26 -39 53 -84 60 -100 7 -16 23 -42
36 -58 20 -25 21 -30 8 -45 -10 -11 -13 -30 -9 -63 5 -45 7 -47 62 -72 31 -13
88 -30 126 -36 116 -18 115 -18 115 -46 0 -14 17 -60 37 -102 20 -42 42 -94
49 -115 14 -44 79 -127 100 -127 18 0 18 19 0 67 -8 21 -17 54 -19 75 -3 20
-19 68 -36 107 -17 38 -34 84 -37 101 -6 29 -6 30 34 30 23 0 43 4 46 8 6 11
-71 106 -90 110 -8 2 -14 9 -14 17 0 7 -36 50 -80 95 -44 45 -83 93 -86 107
-4 14 -1 42 6 63 12 38 11 44 -53 197 -36 87 -75 187 -87 223 -28 80 -57 110
-109 110 -38 0 -81 31 -81 59 0 18 -38 90 -76 144 -19 26 -34 49 -34 52 0 14
-73 116 -89 125 -31 16 -50 12 -57 -14z m136 -182 c0 -9 6 -28 14 -42 16 -32
26 -61 75 -212 21 -63 52 -145 69 -181 18 -36 32 -69 32 -73 0 -3 9 -26 21
-51 13 -27 18 -52 14 -62 -17 -42 -205 414 -250 607 -20 87 -19 101 5 62 11
-18 20 -40 20 -48z m210 -314 c0 -25 -16 -26 -30 -1 -17 32 -13 43 10 31 11
-6 20 -20 20 -30z"/>
<path d="M3456 6287 c-27 -20 -17 -59 17 -71 19 -7 30 -7 35 0 4 6 19 14 34
18 34 8 28 30 -13 51 -35 18 -50 19 -73 2z"/>
<path d="M3697 6112 c-52 -53 -46 -92 14 -92 63 0 103 75 61 113 -26 24 -33
22 -75 -21z"/>
<path d="M3522 5792 c-38 -32 -40 -42 -9 -42 24 0 67 37 67 58 0 20 -23 13
-58 -16z"/>
<path d="M3385 4516 c-16 -11 -17 -22 -12 -84 7 -67 6 -72 -18 -90 -21 -16
-25 -28 -25 -70 0 -28 9 -69 21 -97 37 -84 154 -248 223 -312 64 -61 66 -63
66 -113 0 -46 2 -50 24 -50 31 0 76 17 76 28 0 5 -43 55 -95 110 -52 56 -101
116 -109 135 -30 73 -46 177 -46 301 0 83 -4 127 -11 132 -9 5 -10 -35 -5
-157 3 -90 9 -184 12 -209 4 -32 3 -42 -5 -35 -12 12 -41 155 -41 206 0 20 -7
53 -16 74 -17 42 -12 125 12 184 21 51 -8 79 -51 47z"/>
<path d="M3500 4452 c0 -10 20 -60 45 -110 24 -50 49 -111 55 -134 12 -43 91
-200 115 -228 20 -23 62 -139 70 -190 18 -130 137 -598 253 -995 39 -132 102
-350 142 -484 79 -274 136 -411 169 -411 28 0 26 7 -9 60 -42 63 -68 137 -154
445 -42 149 -101 351 -131 450 -30 99 -74 250 -96 335 -37 136 -40 160 -31
195 11 42 6 79 -21 145 -32 81 -50 115 -63 123 -8 4 -14 22 -14 39 0 16 -6 56
-14 87 -24 94 -24 104 3 111 l24 5 -27 32 c-14 17 -26 36 -26 42 0 6 -4 11
-10 11 -5 0 -34 30 -64 68 -45 55 -61 87 -90 174 -20 59 -36 113 -36 120 0 7
-9 19 -21 26 -11 7 -29 33 -39 57 -21 48 -30 56 -30 27z"/>
<path d="M4403 3590 c-37 -15 -27 -20 37 -20 47 0 60 3 60 15 0 17 -59 20 -97
5z"/>
</g>
</svg>
